<svg width="24" height="24" viewBox="0 0 24 24" fill="none" xmlns="http://www.w3.org/2000/svg">
<path d="M21 4.00021C21 2.89564 20.1046 3.00021 19 3.00021H5C3.89543 3.00021 3 3.89564 3 5.00021V19.0002C3 20.1048 3.89543 21.0002 5 21.0002H19C20.1046 21.0002 21 21.1048 21 20.0002" stroke="#626262" stroke-width="2" stroke-linecap="round" stroke-linejoin="round"/>
<circle cx="7.39697" cy="11.6372" r="1.5" fill="#626262"/>
<path d="M16 15.5C16 14.6716 16.6716 14 17.5 14H21V17H17.5C16.6716 17 16 16.3284 16 15.5V15.5Z" stroke="#626262" stroke-width="1.6"/>
<path d="M16 8.5C16 7.67157 16.6716 7 17.5 7H21V10H17.5C16.6716 10 16 9.32843 16 8.5V8.5Z" stroke="#626262" stroke-width="1.6"/>
</svg>
